<svg width="48" height="48" viewBox="0 0 48 48" fill="none" xmlns="http://www.w3.org/2000/svg">
  <path fill-rule="evenodd" clip-rule="evenodd" d="M12 6H36V8H40C41.1046 8 42 8.89543 42 10V40C42 41.1046 41.1046 42 40 42H8C6.89543 42 6 41.1046 6 40V10C6 8.89543 6.89543 8 8 8H12V6H36ZM8 10V40H40V10H36V12H12V10H8ZM12 16H16V20H12V16ZM12 24H16V28H12V24ZM12 32H16V36H12V32ZM20 16H24V20H20V16ZM20 24H24V28H20V24ZM20 32H24V36H20V32ZM28 16H32V20H28V16ZM28 24H32V28H28V24ZM28 32H32V36H28V32ZM36 16H40V20H36V16ZM36 24H40V28H36V24ZM36 32H40V36H36V32Z" fill="black"/>
</svg>
